<?xml version="1.0" encoding="UTF-8" standalone="no"?>
<!DOCTYPE svg PUBLIC "-//W3C//DTD SVG 1.1//EN" "http://www.w3.org/Graphics/SVG/1.1/DTD/svg11.dtd">
<svg width="100%" height="100%" viewBox="0 0 43 43" version="1.1" xmlns="http://www.w3.org/2000/svg" xmlns:xlink="http://www.w3.org/1999/xlink" xml:space="preserve" xmlns:serif="http://www.serif.com/" style="fill-rule:evenodd;clip-rule:evenodd;stroke-linejoin:round;stroke-miterlimit:2;">
    <g transform="matrix(1.586146,0,0,1.586146,-10.415201,-11.520189)">
        <path d="M20.121,7.764L31.426,14.291L31.426,27.345L20.121,33.872L8.816,27.345L8.816,14.291L20.121,7.764Z" style="fill:url(#_Linear1);"/>
    </g>
    <path d="M21.5,0.794L21.5,21.5L3.568,31.843L3.568,11.162L21.5,0.794" style="fill:url(#_Linear2);"/>
    <g transform="matrix(-1,0,0,1,43,-0)">
        <path d="M21.5,0.794L21.5,21.5L3.568,31.843L3.568,11.162L21.5,0.794" style="fill:url(#_Linear3);"/>
    </g>
    <g transform="matrix(2.309098,0,0,2.216055,-28.147965,-27.08301)">
        <path d="M21.5,12.58L29.265,17.251L29.265,26.595L21.5,31.267L13.735,26.595L13.735,17.251L21.5,12.58ZM21.501,13.528L14.524,17.725L14.524,26.121L21.501,30.319L28.478,26.121L28.478,17.725L21.501,13.528Z" style="fill:white;"/>
    </g>
    <g transform="matrix(1.197802,0,0,1.149537,-4.252735,-3.701529)">
        <path d="M21.5,12.58L29.265,17.251L29.265,26.595L21.5,31.267L13.735,26.595L13.735,17.251L21.5,12.58ZM22.65,20.715L19.842,21.082C18.857,21.211 18.061,21.554 17.455,22.112C16.848,22.669 16.545,23.454 16.545,24.467C16.545,25.391 16.853,26.161 17.469,26.776C18.086,27.391 18.88,27.698 19.851,27.698C20.66,27.698 21.401,27.518 22.072,27.158C22.744,26.798 23.259,26.373 23.618,25.884C23.677,26.319 23.778,26.655 23.921,26.893C24.195,27.341 24.636,27.566 25.242,27.566C25.49,27.566 25.686,27.556 25.829,27.535C25.973,27.515 26.181,27.464 26.455,27.382L26.455,26.026C26.344,26.047 26.24,26.062 26.142,26.072C26.044,26.082 25.956,26.088 25.878,26.088C25.637,26.088 25.479,26.03 25.404,25.914C25.329,25.799 25.291,25.646 25.291,25.456L25.291,19.166C25.291,18.133 24.91,17.371 24.146,16.882C23.377,16.393 22.376,16.148 21.143,16.148C20.08,16.148 19.145,16.411 18.34,16.938C17.534,17.465 17.115,18.401 17.083,19.747L18.726,19.747C18.792,19.183 18.932,18.758 19.147,18.472C19.532,17.956 20.184,17.698 21.104,17.698C21.899,17.698 22.511,17.839 22.938,18.121C23.365,18.403 23.579,18.856 23.579,19.482C23.579,19.787 23.54,20.022 23.462,20.185C23.325,20.484 23.054,20.661 22.65,20.715ZM18.384,24.426C18.384,23.726 18.655,23.216 19.196,22.897C19.516,22.706 19.995,22.567 20.634,22.479L21.701,22.336C22.027,22.295 22.359,22.227 22.698,22.132C23.038,22.037 23.315,21.918 23.53,21.775L23.53,23.254C23.53,24.382 23.041,25.194 22.063,25.69C21.482,25.989 20.882,26.139 20.262,26.139C19.754,26.139 19.313,25.986 18.942,25.68C18.57,25.374 18.384,24.956 18.384,24.426Z" style="fill:white;"/>
    </g>
    <defs>
        <linearGradient id="_Linear1" x1="0" y1="0" x2="1" y2="0" gradientUnits="userSpaceOnUse" gradientTransform="matrix(22.207661,-0,0,22.207661,9.218766,27.338774)"><stop offset="0" style="stop-color:rgb(209,78,235);stop-opacity:1"/><stop offset="1" style="stop-color:rgb(166,0,199);stop-opacity:1"/></linearGradient>
        <linearGradient id="_Linear2" x1="0" y1="0" x2="1" y2="0" gradientUnits="userSpaceOnUse" gradientTransform="matrix(17.931708,5.349427,-5.349427,17.931708,3.568292,10.969249)"><stop offset="0" style="stop-color:rgb(110,156,240);stop-opacity:1"/><stop offset="0.52" style="stop-color:rgb(95,145,235);stop-opacity:1"/><stop offset="1" style="stop-color:rgb(48,109,218);stop-opacity:1"/></linearGradient>
        <linearGradient id="_Linear3" x1="0" y1="0" x2="1" y2="0" gradientUnits="userSpaceOnUse" gradientTransform="matrix(-17.931708,-10.313468,-10.313468,17.931708,21.5,21.5)"><stop offset="0" style="stop-color:rgb(41,84,161);stop-opacity:1"/><stop offset="1" style="stop-color:rgb(9,42,102);stop-opacity:1"/></linearGradient>
    </defs>
</svg>
